<svg xmlns="http://www.w3.org/2000/svg" width="16" height="16">
   <style id="current-color-scheme" type="text/css">
      .ColorScheme-Text { color: #31363b; }
   </style>
   <g class="ColorScheme-Text" fill="currentColor" transform="translate(-0.19999255,-1.1862371) scale(0.59543392)">
      <path d="m 17.1,11.728184 c 0.140921,0.375936 0.375795,0.467769 0.4318,0.4826 0.149346,0.03955 0.391421,-0.127906 0.5334,-0.2794 0.122562,-0.181288 0.295836,-0.44387 0.3556,-0.6604 0.08092,-0.213412 0.133642,-0.487478 0.1016,-0.762 -0.0308,-0.249739 -0.113474,-0.42308 -0.254,-0.5588001 -0.210077,-0.1914027 -0.511923,-0.1630132 -0.6858,-0.1016 -0.153308,0.064961 -0.464249,0.3913361 -0.5334,0.7112001 -0.04038,0.25984 -0.158987,0.538237 -0.1524,0.6604 0.0066,0.122163 0.114956,0.276192 0.2032,0.508 z m -3.7846,0.254 c 0.233617,0.155463 0.380935,0.2727 0.6096,0.2032 0.259087,-0.09859 0.4064,-0.254 0.5588,-0.5334 0.3556,-0.6858 0.449903,-1.219 0.076,-1.4732 -0.192907,-0.148053 -0.359481,-0.2444033 -0.6858,-0.2032001 -0.298593,0.039495 -0.504708,0.1686361 -0.5842,0.3556001 -0.104408,0.212009 -0.233922,0.555961 -0.1778,0.889 0.02683,0.361298 0.05784,0.648337 0.2032,0.762 z m -3.6322,-0.2286 c 0.1293151,0.2523 0.256101,0.42351 0.508,0.4572 0.223833,0.03565 0.367141,0.02883 0.5842,-0.1778 0.247023,-0.184583 0.299161,-0.376859 0.3556,-0.6858 0.08779,-0.313461 0.05431,-0.624087 -0.2032,-0.8382 -0.289313,-0.234814 -0.439872,-0.393725 -0.762,-0.3302 -0.2144038,0.05903 -0.381,0.254 -0.508,0.6096 -0.1016,0.3556 -0.1038882,0.68748 0.025,0.9652 z M 11.2072,24.4442 C 9.6578,24.5966 8.6164,24.6728 8.083,24.6982 7.575,24.7236 7.2702,24.6728 7.2194,24.5712 7.1684,24.495 7.1944,23.733 7.321,22.2598 7.4226,20.8374 7.4734,17.9164 7.4226,13.5476 l -0.051,-6.5532 1.397,-0.127 c 0.9652,-0.1016 2.54,-0.2794 4.7498,-0.5588 1.0922,-0.127 1.9812,-0.2286 2.6924,-0.254 0.6858,-0.0508 1.3208,-0.0508 1.8288,-0.0508 0.5334,0.0508 0.9398,0.127 1.2192,0.254 0.3048,0.127 0.508,0.3048 0.6858,0.5334 0.1524,0.2286 0.2794,0.508 0.3302,0.8636 0.127,0.5334 0.076,2.5146 -0.1524,5.8928 -0.2032,3.3274 -0.3048,5.842 -0.3302,7.5184 l -0.051,2.4384 -1.2954,0.127 c -0.8636,0.0762 -1.8542,0.2032 -2.921,0.3556 -1.0668,0.127 -2.4892,0.2794 -4.318,0.4572 z M 6.94,25.9682 c 0.025,0 0.051,0 0.076,0.0254 0.3556,0.127 0.7366,0.2032 1.143,0.1778 0.381,-0.0254 1.6002,-0.1524 3.6068,-0.381 0.1778,-0.0254 0.3048,-0.0508 0.381,-0.0508 2.6924,-0.3302 4.8514,-0.5588 6.477,-0.7112 l 2.4384,-0.2286 -0.051,-1.8034 c -0.025,-0.9398 0,-2.6162 0.127,-5.0292 0.1016,-2.413 0.254,-4.5974 0.4064,-6.5786 0.127,-1.3462 0.127,-2.54 0.051,-3.5052 C 21.494,6.8674 21.3162,6.2324 21.0368,5.9276 20.5034,5.3434 19.6906,4.9624 18.6238,4.7846 17.557,4.6068 16.16,4.6576 14.4074,4.9116 12.985,5.1402 11.4864,5.2672 9.9116,5.3434 8.3622,5.3942 7.4478,5.445 7.1684,5.4958 6.9652,5.5212 6.8128,5.5974 6.7112,5.7498 6.6096,5.8514 6.5334,6.1562 6.4826,6.6388 6.4066,7.1214 6.381,7.7056 6.381,8.4168 6.356,9.128 6.356,10.1948 6.356,11.6426 c 0,3.4036 -0.1016,6.096 -0.254,8.1026 -0.2794,3.5306 -0.2794,5.461 0.025,5.7658 0.1524,0.1524 0.4318,0.3048 0.8128,0.4572 z"/>
      <path d="m 17.289312,15.104193 c -0.135841,0 -0.271682,0.07762 -0.407522,0.23287 -0.05806,0.09703 -0.135841,0.252275 -0.23287,0.465739 -0.09703,0.213464 -0.174652,0.446334 -0.252276,0.659798 -0.155246,0.504551 -0.426928,0.97029 -0.83445,1.377812 -0.407522,0.426928 -0.853855,0.737421 -1.319595,0.892668 -0.465739,0.194058 -0.873261,0.194058 -1.222566,0.01941 -0.349304,-0.174653 -0.698609,-0.485146 -1.086725,-0.912074 -0.368711,-0.446333 -0.69861,-0.931479 -0.970291,-1.474841 -0.0191,-0.05822 -0.05807,-0.116435 -0.09703,-0.174653 -0.252275,-0.426927 -0.523957,-0.640391 -0.795638,-0.659797 -0.2328704,0 -0.3881164,0.174652 -0.4463344,0.504551 -0.03896,0.194058 0.05806,0.504551 0.291087,0.950885 0.2328704,0.446333 0.5433634,0.892667 0.9120734,1.319595 0.388117,0.465739 0.737421,0.795638 1.047914,1.028508 0.504551,0.36871 1.06732,0.562768 1.649494,0.60158 0.582175,0.01941 1.144943,-0.07762 1.6689,-0.349305 0.543363,-0.232869 1.028508,-0.620986 1.494247,-1.164348 0.46574,-0.504551 0.815045,-1.144943 1.086726,-1.862958 0.09703,-0.252276 0.135841,-0.504551 0.09703,-0.698609 -0.0191,-0.23287 -0.09703,-0.407522 -0.213464,-0.543363 -0.116435,-0.135845 -0.23287,-0.213468 -0.36871,-0.213468 z"/>
   </g>
</svg>
 